<svg width="32" height="34" viewBox="0 0 32 34" fill="none" xmlns="http://www.w3.org/2000/svg">
<g filter="url(#filter0_d_1_240)">
<path fill-rule="evenodd" clip-rule="evenodd" d="M16 25.2C18.9704 25.2 21.8192 24.0201 23.9196 21.9196C26.02 19.8192 27.2 16.9705 27.2 14C27.2 11.0296 26.02 8.18086 23.9196 6.08045C21.8192 3.98005 18.9704 2.80005 16 2.80005C13.0296 2.80005 10.1808 3.98005 8.08039 6.08045C5.97998 8.18086 4.79999 11.0296 4.79999 14C4.79999 16.9705 5.97998 19.8192 8.08039 21.9196C10.1808 24.0201 13.0296 25.2 16 25.2ZM8.06479 11.2378C8.58459 9.74925 9.51209 8.43659 10.7416 7.44945C11.1168 8.02205 11.7636 8.40005 12.5 8.40005C13.0569 8.40005 13.5911 8.6213 13.9849 9.01512C14.3787 9.40895 14.6 9.94309 14.6 10.5V11.2C14.6 11.9427 14.895 12.6548 15.4201 13.1799C15.9452 13.705 16.6574 14 17.4 14C18.1426 14 18.8548 13.705 19.3799 13.1799C19.905 12.6548 20.2 11.9427 20.2 11.2C20.1998 10.5734 20.4097 9.96487 20.7963 9.4717C21.1829 8.97854 21.7237 8.62929 22.3322 8.47985C23.6682 10.0082 24.4031 11.9701 24.4 14C24.4 14.476 24.3608 14.945 24.2838 15.4H23C22.2574 15.4 21.5452 15.695 21.0201 16.2201C20.495 16.7453 20.2 17.4574 20.2 18.2V21.2758C18.9236 22.0144 17.4746 22.4022 16 22.4V19.6C16 18.8574 15.705 18.1453 15.1799 17.6202C14.6548 17.095 13.9426 16.8 13.2 16.8C12.4574 16.8 11.7452 16.505 11.2201 15.9799C10.695 15.4548 10.4 14.7427 10.4 14C10.4002 13.3378 10.1658 12.697 9.73825 12.1913C9.31072 11.6856 8.7178 11.3478 8.06479 11.2378Z" fill="black"/>
</g>
<defs>
<filter id="filter0_d_1_240" x="-2" y="0" width="36" height="36" filterUnits="userSpaceOnUse" color-interpolation-filters="sRGB">
<feFlood flood-opacity="0" result="BackgroundImageFix"/>
<feColorMatrix in="SourceAlpha" type="matrix" values="0 0 0 0 0 0 0 0 0 0 0 0 0 0 0 0 0 0 127 0" result="hardAlpha"/>
<feOffset dy="4"/>
<feGaussianBlur stdDeviation="2"/>
<feComposite in2="hardAlpha" operator="out"/>
<feColorMatrix type="matrix" values="0 0 0 0 0 0 0 0 0 0 0 0 0 0 0 0 0 0 0.25 0"/>
<feBlend mode="normal" in2="BackgroundImageFix" result="effect1_dropShadow_1_240"/>
<feBlend mode="normal" in="SourceGraphic" in2="effect1_dropShadow_1_240" result="shape"/>
</filter>
</defs>
</svg>
