<svg width="14" height="13" viewBox="0 0 14 13" fill="none" xmlns="http://www.w3.org/2000/svg">
<path d="M6.14413 0.634309C6.41413 -0.194591 7.58683 -0.194591 7.85593 0.634309L8.81893 3.59711C8.87776 3.77755 8.99213 3.93477 9.14569 4.0463C9.29925 4.15784 9.48414 4.21797 9.67393 4.21811H12.7897C13.6618 4.21811 14.0236 5.33411 13.3189 5.84711L10.7989 7.67771C10.6451 7.78934 10.5305 7.94682 10.4716 8.12758C10.4128 8.30834 10.4127 8.50309 10.4713 8.68391L11.4343 11.6467C11.7043 12.4756 10.7548 13.1659 10.0483 12.6529L7.52833 10.8223C7.37461 10.7107 7.18953 10.6506 6.99958 10.6506C6.80962 10.6506 6.62454 10.7107 6.47083 10.8223L3.95083 12.6529C3.24523 13.1659 2.29663 12.4756 2.56573 11.6467L3.52873 8.68391C3.58738 8.50309 3.58728 8.30834 3.52843 8.12758C3.46957 7.94682 3.355 7.78934 3.20113 7.67771L0.682026 5.84801C-0.0226744 5.33501 0.340026 4.21901 1.21123 4.21901H4.32613C4.51607 4.21906 4.70116 4.15901 4.8549 4.04747C5.00864 3.93592 5.12314 3.77859 5.18203 3.59801L6.14503 0.635209L6.14413 0.634309Z" fill="#FCD980"/>
</svg>
